<?xml version="1.0" standalone="no"?>
<!DOCTYPE svg PUBLIC "-//W3C//DTD SVG 20010904//EN"
 "http://www.w3.org/TR/2001/REC-SVG-20010904/DTD/svg10.dtd">
<svg version="1.0" xmlns="http://www.w3.org/2000/svg"
 width="410.000000pt" height="410.000000pt" viewBox="0 0 410.000000 410.000000"
 preserveAspectRatio="xMidYMid meet">
<metadata>
Created by potrace 1.11, written by Peter Selinger 2001-2013
</metadata>
<g transform="translate(0.000000,410.000000) scale(0.100000,-0.100000)"
fill="#000000" stroke="none">
<path d="M895 2939 c3 -30 8 -62 11 -71 3 -10 1 -18 -5 -18 -6 0 -11 4 -11 8
0 18 -111 67 -124 55 -3 -3 4 -19 15 -34 l20 -29 -50 0 c-28 0 -51 -4 -51 -10
0 -5 3 -10 8 -10 4 0 20 -16 35 -35 l28 -36 -21 -17 c-14 -11 -23 -33 -27 -62
l-6 -45 24 21 c47 41 124 37 167 -9 25 -26 20 -35 -32 -63 -22 -12 -47 -35
-57 -53 -9 -17 -21 -37 -27 -44 -6 -7 -9 -23 -6 -34 4 -15 -1 -26 -19 -37 -52
-35 -78 14 -32 60 30 30 31 34 6 34 -18 0 -19 4 -10 28 6 18 6 37 0 53 -5 13
-10 19 -10 12 -1 -7 -10 -17 -21 -23 -27 -15 -52 10 -48 47 2 22 -1 28 -15 28
-10 0 -24 11 -31 23 -11 21 -14 22 -26 7 -7 -9 -26 -23 -42 -31 -17 -9 -28
-23 -28 -35 0 -11 -5 -30 -11 -41 -16 -30 -13 -87 6 -108 16 -17 16 -18 -2
-16 -10 2 -26 -5 -36 -15 -13 -14 -25 -17 -45 -13 -15 4 -29 10 -32 14 -9 12
-47 18 -61 9 -7 -4 -22 -3 -32 3 -16 8 -22 7 -29 -6 -5 -9 -16 -16 -23 -16 -8
0 -14 -3 -13 -7 3 -13 -26 -67 -39 -76 -21 -13 -15 -56 11 -78 14 -12 23 -26
21 -33 -2 -6 -6 -33 -9 -59 -4 -41 -3 -47 12 -45 13 2 17 -4 16 -25 0 -17 4
-26 12 -23 20 8 25 -72 6 -118 l-16 -41 -8 39 c-5 25 -5 43 2 50 14 14 12 47
-4 69 -16 21 -26 22 -26 2 0 -21 -16 -19 -57 6 -45 28 -105 30 -133 4 -18 -16
-21 -27 -16 -67 3 -25 10 -58 16 -73 14 -38 13 -132 -4 -190 -7 -27 -11 -59
-9 -70 3 -11 6 -45 7 -75 2 -35 11 -68 24 -90 l22 -35 0 33 c0 36 15 55 77 95
l42 26 -5 -41 c-4 -45 -24 -82 -53 -97 -15 -9 -18 -21 -17 -73 1 -38 -4 -76
-13 -95 -14 -31 -13 -34 22 -92 21 -32 37 -64 37 -70 0 -32 102 -35 187 -7 26
9 86 39 133 66 90 53 162 80 216 80 l33 0 -6 -48 c-8 -67 7 -89 85 -125 61
-29 76 -32 167 -32 82 0 110 4 159 24 33 13 70 36 84 50 21 23 23 32 19 80
l-6 54 54 -7 c61 -7 135 -37 210 -85 75 -47 152 -73 227 -76 61 -2 67 0 72 20
3 12 17 39 32 60 38 57 44 79 30 106 -7 13 -11 52 -10 87 1 60 -11 92 -36 92
-11 0 -29 48 -35 93 l-5 37 43 -27 c63 -40 80 -61 74 -89 -2 -13 0 -27 4 -30
5 -3 9 0 9 6 0 7 10 25 21 42 17 24 19 34 11 52 -6 14 -7 28 -1 37 13 21 11
115 -4 152 -16 38 -12 127 7 177 17 46 14 106 -6 127 -23 23 -90 20 -133 -6
-43 -25 -55 -26 -55 -6 0 12 -4 13 -19 6 -24 -13 -32 -45 -16 -68 8 -11 10
-32 6 -57 l-6 -39 -18 38 c-13 27 -16 49 -11 81 3 24 10 42 14 39 5 -3 10 7
12 22 2 20 8 27 20 25 12 -2 16 3 13 16 -12 66 -9 102 13 122 24 23 29 64 9
77 -14 9 -42 64 -38 77 1 5 -6 6 -15 2 -11 -4 -18 0 -21 14 -6 22 -11 24 -32
11 -9 -6 -22 -6 -31 -1 -11 6 -21 5 -28 -2 -9 -9 -12 -8 -12 3 -1 11 -3 11
-13 -3 -22 -29 -87 -23 -87 8 0 8 -11 14 -27 14 -25 0 -26 1 -8 20 13 14 16
29 12 57 -13 87 -20 103 -51 125 -17 11 -36 28 -43 36 -10 12 -13 10 -19 -12
-3 -14 -11 -26 -18 -25 -30 4 -37 -2 -31 -22 4 -12 2 -32 -5 -44 -11 -20 -16
-22 -34 -12 -11 7 -24 16 -28 21 -12 17 -20 -41 -9 -62 9 -17 7 -21 -17 -27
-27 -7 -27 -7 -4 -16 24 -9 46 -54 37 -76 -3 -9 -16 -13 -32 -11 -24 3 -28 8
-30 36 -1 26 -13 45 -57 88 -31 30 -63 54 -71 54 -18 0 -19 8 -2 43 21 47 87
57 136 20 l34 -26 -6 44 c-4 30 -13 50 -31 64 l-25 20 34 37 c19 20 35 40 35
44 0 4 -29 4 -65 1 -50 -5 -64 -3 -58 6 4 7 8 17 9 24 1 7 9 26 17 43 14 27
14 30 0 30 -26 0 -84 -41 -104 -73 l-18 -31 -11 30 c-19 53 -34 75 -63 96
l-28 20 6 -53z m452 -387 c8 -5 8 -15 -2 -37 -11 -26 -13 -27 -14 -8 -1 12 -4
28 -7 37 -7 17 3 21 23 8z m-731 -28 c-3 -9 -6 -22 -6 -30 0 -23 -17 -7 -22
21 -4 20 -1 25 14 25 14 0 18 -5 14 -16z m858 -145 c-3 -5 -10 -7 -15 -3 -5 3
-7 10 -3 15 3 5 10 7 15 3 5 -3 7 -10 3 -15z m-989 -8 c3 -5 1 -12 -5 -16 -5
-3 -10 1 -10 9 0 18 6 21 15 7z m850 -11 c3 -6 -1 -7 -9 -4 -18 7 -21 14 -7
14 6 0 13 -4 16 -10z m117 -20 c-17 -16 -26 -18 -47 -10 -29 11 -34 20 -6 13
11 -3 28 0 38 6 30 17 38 12 15 -9z m-922 -20 c0 -5 -2 -10 -4 -10 -3 0 -8 5
-11 10 -3 6 -1 10 4 10 6 0 11 -4 11 -10z m867 -16 c-3 -3 -12 -4 -19 -1 -8 3
-5 6 6 6 11 1 17 -2 13 -5z m-102 -51 c21 -32 31 -32 26 -1 0 4 13 6 29 6 38
-1 39 -14 3 -23 -28 -7 -28 -7 -5 -18 26 -12 29 -32 6 -41 -9 -3 -37 -6 -64
-6 -43 0 -48 2 -43 20 3 11 9 17 14 14 13 -8 23 46 10 59 -11 11 -15 27 -6 27
2 0 16 -17 30 -37z m-735 23 c0 -3 -4 -8 -10 -11 -5 -3 -10 -1 -10 4 0 6 5 11
10 11 6 0 10 -2 10 -4z m113 -23 c-19 -7 -16 -51 4 -62 26 -14 10 -23 -37 -23
-63 1 -93 34 -47 52 12 5 16 9 9 9 -8 1 -10 6 -6 13 5 8 12 2 20 -17 7 -17 13
-24 14 -16 0 18 41 63 49 55 3 -4 0 -9 -6 -11z m124 -38 c-1 -44 -2 -45 -35
-45 -30 0 -33 2 -22 15 7 8 20 14 29 13 8 -2 16 4 17 12 3 44 4 50 8 50 3 0 4
-20 3 -45z m418 -43 c-18 -4 -35 13 -35 35 0 8 11 4 26 -10 22 -19 23 -23 9
-25z m-1105 -127 c0 -8 -9 -20 -20 -27 -18 -11 -18 -14 -3 -30 9 -10 24 -18
35 -18 10 0 34 -18 54 -40 29 -32 39 -38 50 -29 11 9 11 5 -1 -17 -8 -16 -15
-34 -15 -40 0 -6 -23 -46 -50 -88 -34 -50 -57 -76 -70 -76 -26 0 -35 36 -16
65 20 31 36 32 36 3 0 -20 1 -21 20 -3 11 10 20 30 20 45 0 15 7 33 15 40 21
17 20 51 -1 43 -13 -5 -15 -3 -6 13 10 20 2 54 -13 57 -6 1 -9 5 -7 10 3 11
-16 9 -23 -3 -3 -5 -14 -10 -24 -10 -23 0 -42 65 -30 98 9 25 49 31 49 7z
m1764 -1 c25 -64 -22 -132 -62 -92 -9 9 -12 7 -13 -12 0 -14 -3 -19 -6 -12
-10 24 -21 1 -17 -36 3 -27 1 -33 -6 -22 -8 12 -10 11 -10 -6 0 -12 7 -27 15
-34 8 -7 15 -25 15 -40 0 -15 9 -35 20 -45 19 -18 20 -17 20 3 0 12 4 22 10
22 17 0 39 -45 33 -68 -10 -40 -40 -26 -85 41 -44 64 -96 176 -73 157 9 -8 22
0 49 30 20 23 41 38 46 35 5 -3 21 5 36 19 28 23 28 23 6 30 -28 9 -30 46 -3
46 10 0 22 -7 25 -16z m-1252 -29 c6 -28 -6 -34 -16 -9 -8 22 -7 34 3 34 5 0
11 -11 13 -25z m718 12 c0 -7 -6 -22 -14 -33 -15 -19 -15 -19 -11 1 2 11 4 26
4 33 1 16 21 16 21 -1z m-828 -170 c-3 -35 11 -52 21 -24 2 6 4 0 4 -15 0 -16
-5 -28 -11 -29 -6 0 -1 -4 11 -9 22 -9 22 -9 4 -50 -24 -54 -26 -55 -28 -9 -2
53 -13 63 -79 78 l-56 13 44 31 c24 17 47 37 51 45 5 7 16 12 25 10 13 -3 16
-13 14 -41z m987 2 c29 -23 50 -43 47 -46 -2 -3 -26 -10 -53 -17 -58 -15 -72
-38 -69 -113 3 -64 -4 -59 -33 23 -23 66 -25 75 -13 73 26 -4 32 3 26 29 -7
24 -5 25 9 14 14 -12 15 -9 12 25 -6 66 4 68 74 12z m-830 -184 c49 -158 149
-277 269 -319 35 -13 42 -12 92 12 108 51 207 182 244 323 9 36 18 53 28 50 7
-2 18 -4 24 -4 10 0 94 -199 94 -223 0 -8 -11 -8 -40 0 -41 10 -72 2 -71 -19
0 -25 -41 -52 -82 -53 -45 -2 -145 -46 -153 -67 -3 -7 4 -31 15 -54 12 -22 21
-42 21 -45 0 -14 -96 -34 -154 -31 -58 3 -126 19 -126 32 0 2 9 22 21 44 11
23 18 47 15 55 -10 25 -164 82 -180 67 -3 -3 -19 6 -36 21 -17 14 -26 26 -20
26 10 0 9 4 0 15 -14 17 -53 20 -79 5 -12 -6 -24 -5 -35 3 -15 11 -14 19 19
97 52 121 57 131 72 126 7 -3 15 -1 18 4 13 21 22 7 44 -65z m915 -39 c-2 -14
0 -36 6 -50 9 -25 8 -26 -10 -16 -23 12 -27 59 -8 78 16 16 17 16 12 -12z
m-1208 -11 c4 -15 0 -39 -10 -59 -9 -19 -16 -39 -16 -45 0 -6 -3 -10 -7 -10
-30 5 -58 -33 -66 -89 -5 -32 -4 -33 19 -28 35 9 71 -3 88 -30 15 -22 15 -24
-20 -40 -27 -13 -38 -14 -47 -5 -9 9 -8 11 6 6 11 -5 17 -2 17 8 0 27 -28 40
-102 46 -5 1 -8 13 -8 28 0 26 35 80 76 118 33 31 51 67 49 98 -2 34 12 36 21
2z m1320 -176 c15 -30 19 -68 7 -70 -5 -1 -23 -2 -41 -4 -17 -1 -39 -8 -47
-15 -17 -14 -21 -45 -5 -35 6 3 10 1 10 -4 0 -6 -5 -11 -10 -11 -21 0 -172 88
-159 92 8 3 22 -3 33 -13 35 -33 72 -40 100 -18 14 11 28 29 32 41 3 12 13 37
21 55 12 29 16 33 29 22 8 -7 22 -25 30 -40z m-146 -14 c-7 -8 -22 -15 -34
-15 -18 0 -17 2 9 19 34 21 44 19 25 -4z"/>
<path d="M2188 2172 c-52 -2 -68 -6 -68 -17 0 -8 6 -15 14 -15 24 0 28 -34 28
-248 0 -197 -1 -207 -21 -223 -37 -30 -25 -39 54 -39 41 0 75 3 75 7 0 4 -10
17 -21 29 -20 21 -22 35 -23 193 -2 135 0 167 9 153 7 -9 41 -66 75 -127 34
-60 76 -132 92 -160 16 -27 34 -60 40 -72 9 -19 19 -23 60 -23 26 0 49 3 49 8
1 4 2 113 3 242 1 129 5 241 9 248 5 6 15 12 23 12 23 0 16 28 -8 32 -41 6
-128 -4 -128 -14 0 -5 9 -17 20 -26 17 -15 19 -32 21 -170 1 -83 -1 -155 -4
-159 -4 -3 -7 -2 -7 3 0 9 -82 160 -152 279 -16 28 -32 57 -34 67 -7 21 -23
24 -106 20z"/>
<path d="M3123 2172 c-39 -4 -42 -14 -11 -34 22 -15 23 -18 22 -237 0 -217 0
-222 -22 -237 -37 -26 -25 -34 53 -34 79 0 88 7 55 40 -16 16 -20 34 -20 83
-1 34 -2 110 -3 170 -1 79 1 103 9 93 6 -9 58 -99 115 -200 l104 -186 52 0 51
0 -1 233 c0 238 4 277 29 277 8 0 14 7 14 15 0 12 -15 15 -75 15 -41 0 -75 -3
-75 -8 0 -4 9 -15 20 -25 11 -9 20 -25 21 -34 2 -100 4 -313 2 -313 -1 0 -10
17 -20 38 -10 21 -56 106 -103 189 l-85 151 -50 4 c-27 2 -65 2 -82 0z"/>
<path d="M3801 2151 c-6 -14 -44 -116 -85 -226 -91 -245 -94 -253 -118 -260
-10 -4 -18 -13 -18 -21 0 -11 18 -14 85 -14 66 0 85 3 85 14 0 7 -9 16 -20 19
-24 6 -27 51 -6 101 l14 34 75 0 c41 0 79 -3 86 -7 7 -5 15 -33 18 -64 5 -49
3 -58 -13 -64 -11 -5 -20 -14 -22 -20 -1 -10 25 -13 108 -13 91 0 110 3 110
15 0 8 -6 15 -14 15 -8 0 -21 19 -30 43 -14 36 -79 250 -91 297 -2 8 -14 51
-27 95 l-23 79 -52 2 c-47 0 -53 -2 -62 -25z m59 -196 c31 -117 33 -109 -30
-110 -30 -1 -60 0 -67 3 -8 2 0 36 25 107 20 57 40 99 44 92 3 -7 16 -48 28
-92z"/>
<path d="M2745 2008 c-33 -11 -62 -21 -64 -23 -1 -2 -5 -20 -7 -39 -3 -36 -3
-36 36 -36 33 0 39 4 49 30 11 32 51 54 81 45 10 -3 23 -20 29 -37 13 -35 15
-102 3 -95 -13 9 -114 -14 -152 -33 -72 -37 -90 -107 -42 -161 27 -30 36 -33
80 -33 38 0 61 8 91 27 l41 27 0 -25 c0 -24 2 -25 75 -25 78 0 90 7 53 32 -21
14 -23 23 -25 150 -1 73 -7 146 -12 161 -22 57 -126 72 -236 35z m135 -233 c0
-74 -63 -121 -105 -78 -19 18 -14 68 9 91 11 12 53 26 89 31 4 1 7 -19 7 -44z"/>
<path d="M3045 1550 c-11 -5 -14 -9 -7 -9 7 -1 10 -5 7 -11 -3 -5 -4 -10 -1
-10 3 0 10 9 16 20 6 11 9 20 8 19 -2 0 -12 -4 -23 -9z"/>
<path d="M3375 1540 c-20 -22 -17 -49 7 -64 25 -15 53 14 44 47 -8 33 -30 40
-51 17z m43 -34 c-2 -13 -10 -21 -23 -21 -23 0 -32 30 -14 51 16 19 41 -1 37
-30z"/>
<path d="M3470 1543 c0 -12 -3 -30 -6 -40 -6 -17 -6 -17 8 0 13 18 15 17 26
-7 6 -14 17 -26 24 -26 9 0 9 3 0 12 -8 8 -8 15 -1 24 7 8 7 14 -1 19 -6 4
-10 3 -9 -2 5 -26 -4 -23 -21 7 -16 29 -19 31 -20 13z"/>
<path d="M3804 1552 c-7 -4 -11 -24 -11 -44 1 -31 5 -38 22 -38 18 1 19 1 3
11 -10 5 -18 14 -18 19 0 5 8 11 18 13 15 4 15 5 -1 6 -10 0 -17 7 -14 14 2 6
10 11 16 9 7 -1 10 2 6 8 -7 12 -7 12 -21 2z"/>
<path d="M2131 1508 l2 -43 6 35 6 35 14 -32 c7 -18 16 -33 20 -33 4 0 7 15 8
33 1 28 0 29 -6 7 -7 -24 -7 -24 -20 8 -19 44 -31 40 -30 -10z"/>
<path d="M2236 1526 c-3 -13 -9 -32 -12 -43 -3 -10 -2 -14 3 -7 4 6 16 13 26
17 9 3 17 12 16 19 0 10 -2 10 -6 1 -2 -7 -9 -13 -14 -13 -6 0 -6 8 1 19 12
24 13 31 1 31 -5 0 -12 -11 -15 -24z"/>
<path d="M2307 1542 c6 -4 13 -23 16 -42 l4 -35 1 37 c1 20 8 39 15 41 6 3 -1
6 -18 6 -17 0 -25 -3 -18 -7z"/>
<path d="M2380 1540 c0 -5 5 -10 10 -10 6 0 10 5 10 10 0 6 -4 10 -10 10 -5 0
-10 -4 -10 -10z"/>
<path d="M2436 1534 c-11 -28 -6 -52 10 -58 25 -10 33 -7 43 12 13 24 3 62
-16 62 -12 0 -12 -2 1 -16 18 -18 19 -24 7 -43 -5 -8 -16 -11 -26 -7 -13 5
-16 14 -11 36 6 32 2 40 -8 14z"/>
<path d="M2530 1542 c0 -5 7 -13 16 -16 10 -4 14 -1 12 6 -5 15 -28 23 -28 10z"/>
<path d="M2578 1514 c-2 -19 0 -37 4 -40 4 -3 8 13 8 35 0 51 -6 53 -12 5z"/>
<path d="M2642 1525 c-7 -14 -12 -34 -12 -43 0 -15 2 -15 10 -2 8 12 13 13 29
3 17 -11 19 -10 15 2 -4 8 -12 15 -20 15 -8 0 -14 8 -14 18 0 14 2 15 10 2 5
-8 10 -10 10 -5 0 6 -4 16 -8 23 -6 9 -12 5 -20 -13z"/>
<path d="M2722 1513 c-2 -39 0 -43 21 -42 16 1 17 3 5 6 -11 3 -18 17 -21 41
l-4 37 -1 -42z"/>
<path d="M2841 1508 l2 -43 6 35 6 35 14 -32 c18 -44 27 -41 28 10 1 41 1 41
-6 7 l-6 -35 -14 33 c-19 44 -31 40 -30 -10z"/>
<path d="M2944 1510 c1 -28 5 -35 21 -35 16 0 20 7 21 40 l1 40 -4 -37 c-5
-48 -30 -51 -36 -5 -4 32 -4 32 -3 -3z"/>
<path d="M3111 1508 c1 -24 3 -35 6 -25 2 9 7 17 10 17 3 0 12 -8 20 -17 13
-17 13 -16 4 3 -5 11 -7 30 -4 42 4 18 1 22 -16 22 -18 0 -21 -6 -20 -42z m29
23 c0 -6 -4 -13 -10 -16 -5 -3 -10 1 -10 9 0 9 5 16 10 16 6 0 10 -4 10 -9z"/>
<path d="M3190 1510 c0 -22 3 -40 8 -40 4 0 7 18 7 40 0 22 -3 40 -7 40 -5 0
-8 -18 -8 -40z"/>
<path d="M3245 1540 c3 -5 12 -7 20 -3 21 7 19 13 -6 13 -11 0 -18 -4 -14 -10z"/>
<path d="M3317 1537 c-3 -8 -1 -20 5 -28 8 -11 9 -11 5 2 -3 9 0 22 6 28 8 8
8 11 0 11 -6 0 -13 -6 -16 -13z"/>
<path d="M3621 1513 c-6 -20 -8 -39 -6 -42 3 -2 5 1 5 7 0 7 9 12 20 12 11 0
20 -5 20 -12 0 -6 2 -9 5 -7 7 7 -17 79 -26 79 -5 0 -13 -17 -18 -37z m29 -4
c0 -5 -4 -9 -10 -9 -5 0 -10 7 -10 16 0 8 5 12 10 9 6 -3 10 -10 10 -16z"/>
<path d="M3704 1536 c-10 -26 1 -61 20 -64 27 -6 40 12 27 35 -11 16 -11 16
-6 -4 5 -19 2 -23 -14 -23 -32 0 -30 57 2 63 l22 4 -23 2 c-12 0 -25 -5 -28
-13z"/>
<path d="M3870 1535 c0 -8 5 -15 10 -15 6 0 16 -11 22 -25 12 -28 25 -33 25
-10 0 8 -4 12 -8 10 -4 -3 -13 8 -21 25 -14 32 -28 40 -28 15z"/>
<path d="M3917 1535 c-4 -8 -3 -16 1 -19 4 -3 9 4 9 15 2 23 -3 25 -10 4z"/>
<path d="M3972 1538 c-24 -24 -6 -69 28 -67 9 0 6 4 -7 9 -14 6 -23 18 -23 30
0 12 9 24 23 30 13 5 16 9 7 9 -9 1 -21 -4 -28 -11z"/>
<path d="M4050 1544 c1 -5 7 -20 14 -33 l13 -24 7 28 c4 15 5 30 1 33 -3 3 -5
-3 -5 -14 -1 -19 -1 -19 -15 0 -8 11 -15 16 -15 10z"/>
<path d="M3250 1505 c0 -8 2 -15 4 -15 2 0 6 7 10 15 3 8 1 15 -4 15 -6 0 -10
-7 -10 -15z"/>
<path d="M2530 1490 c0 -11 2 -20 4 -20 2 0 6 9 9 20 3 11 1 20 -4 20 -5 0 -9
-9 -9 -20z"/>
<path d="M3043 1495 c0 -8 4 -12 9 -9 5 3 6 10 3 15 -9 13 -12 11 -12 -6z"/>
<path d="M3872 1490 c0 -14 2 -19 5 -12 2 6 2 18 0 25 -3 6 -5 1 -5 -13z"/>
<path d="M2380 1480 c0 -5 5 -10 11 -10 5 0 7 5 4 10 -3 6 -8 10 -11 10 -2 0
-4 -4 -4 -10z"/>
<path d="M3315 1480 c-3 -5 -1 -10 4 -10 6 0 11 5 11 10 0 6 -2 10 -4 10 -3 0
-8 -4 -11 -10z"/>
</g>
</svg>
